<?xml version="1.0" encoding="UTF-8" standalone="no"?><!DOCTYPE svg PUBLIC "-//W3C//DTD SVG 1.1//EN" "http://www.w3.org/Graphics/SVG/1.1/DTD/svg11.dtd"><svg width="100%" height="100%" viewBox="0 0 4339 3175" version="1.1" xmlns="http://www.w3.org/2000/svg" xmlns:xlink="http://www.w3.org/1999/xlink" xml:space="preserve" xmlns:serif="http://www.serif.com/" fill='#f7fafc' style="fill-rule:evenodd;clip-rule:evenodd;stroke-linejoin:round;stroke-miterlimit:2;"><g><path d="M531.577,3174.39l-531.577,0l0,-1562.07l531.95,757.921l-0.373,804.146Z"/><path d="M2544.59,2543.23c167.447,85.702 355.883,128.553 565.307,128.553c335.578,0 618.251,-121.979 848.016,-365.937l380.928,352.711c-148.139,167.537 -330.288,295.395 -546.45,383.572c-216.161,88.178 -454.24,132.267 -714.238,132.267c-32.046,0 -63.781,-0.684 -95.207,-2.05"/><path d="M2392.27,123.593c211.457,-82.395 441.594,-123.593 690.413,-123.593c259.998,0 497.322,44.089 711.972,132.266c214.649,88.178 396.043,216.036 544.182,383.573l-380.928,348.302c-229.765,-241.019 -512.438,-361.528 -848.016,-361.528c-120.103,0 -213.448,26.881 -339.6,42.28c-41.837,-74.201 -73.019,-130.493 -158.619,-229.009c-94.112,-108.313 -155.496,-143.559 -219.404,-192.291Z"/><path d="M341.978,498.833c0.246,-0.02 -341.978,-498.833 -341.978,-498.833l1417.27,0c275.114,0 514.706,45.348 718.774,136.045c204.068,90.697 360.52,220.697 469.357,389.998c108.836,169.301 163.254,370.346 163.254,603.135c0,238.835 -58.197,444.415 -174.591,616.739c-116.395,172.324 -283.428,300.812 -501.101,385.462l730.111,1043.02l-634.879,0c0,0 -787.593,-1129.05 -967.22,-1410.34l169.086,0c256.975,0 451.973,-55.174 584.996,-165.522c133.022,-110.348 199.533,-266.801 199.533,-469.357c0,-202.557 -66.511,-358.254 -199.533,-467.09c-133.021,-108.835 -328.018,-163.254 -584.996,-163.255l-1048.09,0Z"/></g></svg>